<svg width="50" height="50" 
    xmlns="http://www.w3.org/2000/svg">
    <g>
        <path fill="#ffffff" d="m46.684867,34.440876l0,9.918l-0.004,0l0.004,0.902c-9.623,4.855 -25.598,6.24 -34.814,0.025c-5.579,-3.763 -11.081,-11.247 -10.781,-20.712c0.286,-8.992 6.116,-17.043 14.134,-21.095c9.217,-4.663 23.129,-3.782 31.241,2.934l-4.779,4.873l-3.096,0.879l1.646,-2.995c-2.365,-2.377 -5.08,-4.101 -8.068,-5.055c-4.768,-1.528 -9.166,-0.684 -12.832,1.108c-7.505,3.676 -11.946,12.582 -10.222,21.999c1.818,9.921 9.494,17.879 19.562,18.715c2.967,0.25 6.215,0.102 9.092,-0.654c2.043,-0.66 2.027,-0.859 2.027,-2.1l0,-8.742l-10.082,0.299l5.191,-2.924l14.018,0l-2.237,2.625z"/>
    </g>
</svg>